<?xml version="1.0" encoding="UTF-8"?>
<svg version="1.1" xmlns="http://www.w3.org/2000/svg" width="157" height="71">
<path d="M0 0 C5.28 0 10.56 0 16 0 C16.96023825 2.85353821 17.91824013 5.70779555 18.875 8.5625 C19.14441406 9.36236328 19.41382812 10.16222656 19.69140625 10.98632812 C21.24570557 15.63027123 22.69483177 20.27985276 24 25 C24.20681396 24.31373535 24.41362793 23.6274707 24.62670898 22.92041016 C25.56177645 19.82137444 26.49960295 16.72318048 27.4375 13.625 C27.76298828 12.54476563 28.08847656 11.46453125 28.42382812 10.3515625 C28.73642578 9.3203125 29.04902344 8.2890625 29.37109375 7.2265625 C29.65911865 6.27346191 29.94714355 5.32036133 30.24389648 4.33837891 C31 2 31 2 32 0 C37.28 0 42.56 0 48 0 C51.85239747 17.24105752 54.68156455 34.48868864 57 52 C51.72 51.67 46.44 51.34 41 51 C40.79503906 49.51886719 40.59007812 48.03773437 40.37890625 46.51171875 C40.10691889 44.57029175 39.83477536 42.62888663 39.5625 40.6875 C39.42779297 39.71103516 39.29308594 38.73457031 39.15429688 37.72851562 C39.02216797 36.79072266 38.89003906 35.85292969 38.75390625 34.88671875 C38.63345947 34.02264404 38.5130127 33.15856934 38.38891602 32.26831055 C38.03222925 29.84441874 38.03222925 29.84441874 37 27 C36.79318604 27.69150146 36.58637207 28.38300293 36.37329102 29.09545898 C35.43965276 32.21047054 34.50114417 35.32399341 33.5625 38.4375 C33.23701172 39.52611328 32.91152344 40.61472656 32.57617188 41.73632812 C32.26357422 42.77080078 31.95097656 43.80527344 31.62890625 44.87109375 C31.34088135 45.82943115 31.05285645 46.78776855 30.75610352 47.77514648 C30 50 30 50 29 51 C27.31391034 51.07205511 25.62499341 51.08386068 23.9375 51.0625 C23.01839844 51.05347656 22.09929688 51.04445312 21.15234375 51.03515625 C20.44207031 51.02355469 19.73179688 51.01195312 19 51 C15.88752909 43.1369156 13.49073476 35.07805867 11 27 C9.68 34.92 8.36 42.84 7 51 C2.05 51 -2.9 51 -8 51 C-8.14847095 44.75297815 -7.6932765 39.07296811 -6.50390625 32.94921875 C-6.35090561 32.12799026 -6.19790497 31.30676178 -6.04026794 30.46064758 C-5.55523819 27.86810885 -5.05893053 25.27787694 -4.5625 22.6875 C-4.23300778 20.93177488 -3.90422558 19.17591635 -3.57617188 17.41992188 C-1.2222815 4.88912602 -1.2222815 4.88912602 0 0 Z " fill="#2E207C" transform="translate(9,1)"/>
<path d="M0 0 C5.15625 -0.0825 10.3125 -0.165 15.625 -0.25 C17.24100098 -0.28641602 18.85700195 -0.32283203 20.52197266 -0.36035156 C21.8063623 -0.3703418 23.09075195 -0.38033203 24.4140625 -0.390625 C25.7232666 -0.41157227 27.0324707 -0.43251953 28.38134766 -0.45410156 C32.62387976 0.07829013 34.70453657 1.32578777 38 4 C42.47058164 9.92050002 43.83773825 14.70813748 43 22 C41.20256807 27.85449256 38.47757862 31.08639435 33 34 C27.57364835 35.80878388 21.66885438 35.05200784 16 35 C16 40.28 16 45.56 16 51 C10.72 51 5.44 51 0 51 C0 34.17 0 17.34 0 0 Z M16 12 C16 15.3 16 18.6 16 22 C21.32170494 22.29562367 21.32170494 22.29562367 26 20 C26.41666667 17 26.41666667 17 26 14 C24.23863645 11.81668311 24.23863645 11.81668311 22.0546875 11.8046875 C19.02734375 11.90234375 19.02734375 11.90234375 16 12 Z " fill="#2E207C" transform="translate(73,1)"/>
<path d="M0 0 C10.89 0 21.78 0 33 0 C33 3.96 33 7.92 33 12 C27.06 12 21.12 12 15 12 C15 14.31 15 16.62 15 19 C16.21558594 18.98839844 17.43117187 18.97679688 18.68359375 18.96484375 C20.26822764 18.95546722 21.85286318 18.94636687 23.4375 18.9375 C24.23994141 18.92912109 25.04238281 18.92074219 25.86914062 18.91210938 C27.91295221 18.9034857 29.95683902 18.9477185 32 19 C33 20 33 20 33.1328125 22.46875 C33.13023437 23.4690625 33.12765625 24.469375 33.125 25.5 C33.12886719 27.00046875 33.12886719 27.00046875 33.1328125 28.53125 C33 31 33 31 32 32 C29.13530675 32.07330331 26.30106326 32.09217831 23.4375 32.0625 C20.653125 32.041875 17.86875 32.02125 15 32 C15 38.27 15 44.54 15 51 C10.05 51 5.1 51 0 51 C0 34.17 0 17.34 0 0 Z " fill="#2E207C" transform="translate(123,1)"/>
<path d="M0 0 C0 0.99 0 1.98 0 3 C2.31 3 4.62 3 7 3 C7.66 1.68 8.32 0.36 9 -1 C9.99 -0.67 10.98 -0.34 12 0 C12 0.99 12 1.98 12 3 C12.99 2.67 13.98 2.34 15 2 C15.66 2.33 16.32 2.66 17 3 C17 2.34 17 1.68 17 1 C18.32 1 19.64 1 21 1 C21 1.66 21 2.32 21 3 C21.66 3 22.32 3 23 3 C23 2.01 23 1.02 23 0 C24.32 -0.33 25.64 -0.66 27 -1 C27.495 0.98 27.495 0.98 28 3 C29.65 2.67 31.3 2.34 33 2 C33 1.34 33 0.68 33 0 C33.99 -0.33 34.98 -0.66 36 -1 C36.66 0.32 37.32 1.64 38 3 C38.99 2.67 39.98 2.34 41 2 C43.6875 3.4375 43.6875 3.4375 46 5 C45.125 8.875 45.125 8.875 44 10 C42.15881971 10.09381302 40.31402359 10.11743954 38.47045898 10.11352539 C37.28931015 10.11344986 36.10816132 10.11337433 34.89122009 10.11329651 C33.6058284 10.10813522 32.32043671 10.10297394 30.99609375 10.09765625 C29.68794205 10.0962413 28.37979034 10.09482635 27.03199768 10.09336853 C23.54837141 10.0895441 20.06478661 10.07971446 16.58117676 10.06866455 C13.02873292 10.05844882 9.47628241 10.05387056 5.92382812 10.04882812 C-1.05079832 10.03809212 -8.02539717 10.0210166 -15 10 C-15 6.7 -15 3.4 -15 0 C-12.87562788 -0.19448477 -10.75046809 -0.38038289 -8.625 -0.5625 C-7.44164062 -0.66691406 -6.25828125 -0.77132812 -5.0390625 -0.87890625 C-2 -1 -2 -1 0 0 Z " fill="#000000" transform="translate(16,60)"/>
<path d="M0 0 C0.33 1.32 0.66 2.64 1 4 C1 2.68 1 1.36 1 0 C2.32 0 3.64 0 5 0 C5 1.32 5 2.64 5 4 C6.32 4 7.64 4 9 4 C9 2.68 9 1.36 9 0 C14.75 -0.125 14.75 -0.125 17 1 C17 1.99 17 2.98 17 4 C17.99 3.67 18.98 3.34 20 3 C20.99 3.33 21.98 3.66 23 4 C23.99 3.67 24.98 3.34 26 3 C28.1875 4.4375 28.1875 4.4375 30 6 C29.67 7.65 29.34 9.3 29 11 C24.08871933 11.04949353 19.17758434 11.08576382 14.26611328 11.10986328 C12.59584015 11.1199115 10.92558458 11.13355236 9.25537109 11.15087891 C6.85249496 11.17517926 4.44985173 11.18649487 2.046875 11.1953125 C1.30193787 11.20563507 0.55700073 11.21595764 -0.21051025 11.22659302 C-3.96927642 11.22740368 -6.81173711 11.10367118 -10 9 C-10 9.66 -10 10.32 -10 11 C-11.65 11 -13.3 11 -15 11 C-15 7.7 -15 4.4 -15 1 C-12.36 1 -9.72 1 -7 1 C-6.67 1.99 -6.34 2.98 -6 4 C-5.34 4 -4.68 4 -4 4 C-4 3.01 -4 2.02 -4 1 C-2 0 -2 0 0 0 Z M-3 5 C-2 9 -2 9 -2 9 Z M5 7 C6 9 6 9 6 9 Z " fill="#000000" transform="translate(78,59)"/>
<path d="M0 0 C1.65 0 3.3 0 5 0 C5 1.32 5 2.64 5 4 C5.598125 3.814375 6.19625 3.62875 6.8125 3.4375 C9 3 9 3 12 4 C14.22818441 4.06937062 16.45834524 4.08457084 18.6875 4.0625 C19.86699219 4.05347656 21.04648438 4.04445313 22.26171875 4.03515625 C23.16535156 4.02355469 24.06898438 4.01195312 25 4 C25 2.68 25 1.36 25 0 C25.99 0 26.98 0 28 0 C28 3.63 28 7.26 28 11 C24.37 11 20.74 11 17 11 C16.505 10.01 16.505 10.01 16 9 C15.67 9.66 15.34 10.32 15 11 C6.42 11 -2.16 11 -11 11 C-11 10.01 -11 9.02 -11 8 C-11.66 8 -12.32 8 -13 8 C-13 8.99 -13 9.98 -13 11 C-14.65 11 -16.3 11 -18 11 C-18 7.7 -18 4.4 -18 1 C-15.36 1 -12.72 1 -10 1 C-10 1.99 -10 2.98 -10 4 C-9.01 3.67 -8.02 3.34 -7 3 C-5.66431979 3.32380126 -4.33076989 3.65657551 -3 4 C-2.34 3.67 -1.68 3.34 -1 3 C-0.67 2.01 -0.34 1.02 0 0 Z " fill="#000000" transform="translate(128,59)"/>
</svg>
